<svg width="29" height="29" viewBox="0 0 29 29" fill="none" xmlns="http://www.w3.org/2000/svg">
<path fill-rule="evenodd" clip-rule="evenodd" d="M15.2832 0.00128705C19.5082 -0.0334295 23.1003 1.36038 26.0596 4.18013L29 6.98188L26.7411 9.1343L18.2182 17.4676L18.1534 17.5306C16.7986 18.8215 14.6004 18.8215 13.2469 17.5306C11.9515 16.2962 11.8948 14.3289 13.0755 13.0303H13.0768C13.1308 12.9698 13.1875 12.9107 13.2469 12.8541C13.3171 12.7873 13.3885 12.7243 13.4628 12.6651L19.4961 6.98831C18.1979 6.28627 16.7486 5.91982 15.1495 5.88639C12.6531 5.83496 10.5224 6.65143 8.75871 8.33196C6.99367 10.0138 6.13813 12.0428 6.19211 14.4215C6.24609 16.799 7.15424 18.8292 8.91928 20.5111L8.95302 20.5432C7.84919 19.8707 6.8776 19.026 6.0747 18.0513C4.85887 16.5739 4.03307 14.7982 3.7308 12.867C3.40559 10.7943 3.70921 8.728 4.54046 6.88031C6.41345 2.71432 10.5939 0.038574 15.2845 0L15.2832 0.00128705ZM28.7086 21.9897L28.4832 22.2044L25.899 24.6668C22.9222 27.5032 19.3301 28.9472 15.1226 28.9986C10.9151 29.0501 7.33237 27.6652 4.3731 24.8455C1.41382 22.0257 -0.0435406 18.5978 0.00099025 14.5642C0.0455211 10.5294 1.54744 7.10146 4.50672 4.28299C4.6619 4.13512 4.81979 3.99111 4.97902 3.84967C4.34614 4.64558 3.8185 5.51093 3.40827 6.42256C2.48932 8.46569 2.1533 10.7506 2.51224 13.038C2.84825 15.1763 3.7618 17.1436 5.10717 18.7765C8.9908 23.4915 17.0077 25.0371 21.6484 20.6139L24.4565 17.9382L28.7086 21.9897Z" fill="white"/>
</svg>
