<svg width="131" height="25" viewBox="0 0 131 25" fill="none" xmlns="http://www.w3.org/2000/svg">
<path d="M5.264 16.808H12.908L12.936 20.028H2.072L2.1 6.224L12.908 6.196L12.936 9.416H5.264L5.292 11.46H11.48V14.652L5.264 14.68V16.808ZM21.9209 11.852C24.0769 12.384 26.9889 13.14 26.9889 15.912C26.9889 18.292 24.4409 20.224 21.3049 20.224C18.7009 20.224 16.4889 18.852 15.8449 17.032L18.7289 16.276C18.9809 17.004 20.0729 17.564 21.3049 17.564C22.7609 17.564 23.9649 16.808 23.9649 15.912C23.9649 15.268 23.2649 14.96 21.0809 14.428C19.0089 13.896 15.8729 13.084 15.8729 10.172C15.8729 7.904 18.3089 6.056 21.3049 6.056C23.7409 6.056 25.8129 7.288 26.4849 8.94L23.5729 9.696C23.2369 9.136 22.3409 8.744 21.3049 8.744C20.0169 8.744 18.8969 9.388 18.8969 10.172C18.8969 10.956 19.6529 11.292 21.9209 11.852ZM40.3835 6.28V9.444L36.3515 9.472V20.028H33.1595V9.472H29.1275V6.28H40.3835ZM55.3692 9.752C55.5932 10.144 56.1812 11.348 56.2092 13C56.2372 14.344 55.8732 15.38 55.6772 15.8C55.3412 16.612 54.6412 17.872 53.2692 18.824C51.3372 20.14 49.3772 20.028 48.8172 20C48.3132 19.944 46.3812 19.748 44.7012 18.208C43.5532 17.144 43.0212 15.94 42.7972 15.128C42.5732 14.456 42.1532 12.72 42.8812 10.732C43.0492 10.256 43.8052 8.408 45.8212 7.204C47.3052 6.308 48.7332 6.252 49.4052 6.252C50.1612 6.252 51.4212 6.364 52.7652 7.148C54.2772 7.988 55.0612 9.192 55.3692 9.752ZM52.9892 13.7C53.0172 13.448 53.1852 12.244 52.4012 11.068C51.7012 10.004 50.6092 9.556 49.7692 9.444C49.3212 9.36 48.9572 9.416 48.8732 9.416C47.5012 9.584 46.6892 10.536 46.4932 10.76C45.6252 11.824 45.6532 13.028 45.6812 13.308C45.6812 13.56 45.7652 14.932 46.9412 15.968C47.1652 16.164 48.0332 16.864 49.3492 16.836C50.8612 16.836 51.8132 15.884 52.0092 15.688C52.7372 14.904 52.9332 14.008 52.9892 13.7ZM73.0161 6.224L73.0441 20.028L69.8241 20L62.7681 11.32V20H59.5761V6.224L62.7681 6.196L69.8241 14.932V6.224H73.0161ZM82.0382 12.02C84.1942 12.58 86.8542 13.308 86.8822 15.996C86.8822 18.32 84.4742 20.224 81.5622 20.224C79.0982 20.224 77.0262 18.88 76.4382 17.088L78.3982 16.528C78.7622 17.508 80.0502 18.264 81.5622 18.264C83.3262 18.264 84.8102 17.228 84.8102 15.996C84.8102 14.904 83.7462 14.484 81.4782 13.868C79.2382 13.28 76.4942 12.524 76.4942 9.696C76.4942 7.484 78.7622 5.692 81.5622 5.692C83.8022 5.692 85.7342 6.868 86.3782 8.492L84.3902 9.052C83.9702 8.24 82.8502 7.624 81.5622 7.624C79.9382 7.624 78.5662 8.576 78.5662 9.696C78.5662 10.928 79.6862 11.376 82.0382 12.02ZM103.15 12.72C103.178 13.224 103.234 14.344 102.73 15.632C102.254 16.836 101.554 17.592 101.218 17.928C100.882 18.292 99.9019 19.272 98.3619 19.748C98.2779 19.776 97.7739 19.916 97.1019 20C96.0379 20.112 95.1979 19.944 94.9179 19.888C94.0219 19.72 93.3779 19.384 93.0139 19.188C92.7339 19.02 92.0059 18.6 91.2779 17.816C90.2419 16.64 89.8499 15.464 89.7659 15.184C89.4859 14.26 89.4859 13.476 89.5139 13.084C89.5139 12.692 89.5139 11.936 89.8219 10.984C89.9339 10.648 90.2419 9.78 90.9979 8.856C92.0619 7.54 93.2939 6.98 93.7699 6.784C94.4139 6.532 95.9819 6.028 97.8579 6.448C98.1379 6.532 100.238 7.036 101.722 8.968C102.618 10.088 102.898 11.208 102.954 11.432C103.094 11.992 103.122 12.468 103.15 12.72ZM100.63 15.1C100.798 14.708 101.19 13.672 100.966 12.356C100.77 11.152 100.154 10.368 99.8739 10.032C99.5379 9.668 98.8099 8.94 97.6339 8.604C97.2139 8.464 96.1779 8.24 94.9459 8.604C93.5179 9.024 92.7339 10.032 92.4819 10.396C91.8659 11.264 91.6979 12.132 91.6419 12.636C91.5019 13.812 91.8379 14.708 91.9499 14.988C92.4819 16.276 93.4339 16.948 93.7979 17.172C94.8059 17.816 95.7579 17.872 96.0939 17.9C96.2339 17.9 96.4579 17.928 96.7379 17.9C98.0819 17.788 99.0059 17.088 99.2579 16.864C99.5939 16.584 100.21 16.024 100.63 15.1ZM108.59 8.408V11.824L115.842 11.852V13.952L108.59 13.98L108.618 19.972H106.49V6.28H117.27L117.298 8.408H108.59ZM118.907 6.28H130.135V8.408H125.571V20H123.443L123.471 8.408L118.907 8.436V6.28Z" fill="white"/>
<rect x="50" y="9" width="4" height="1" transform="rotate(90 50 9)" fill="white"/>
<circle cx="49.5" cy="13.5" r="1.5" fill="white"/>
<rect x="97" y="8" width="5" height="1" transform="rotate(90 97 8)" fill="white"/>
<circle cx="96.5" cy="13.5" r="1.5" fill="white"/>
</svg>
